<svg width="24" height="24" viewBox="0 0 24 24" fill="none" xmlns="http://www.w3.org/2000/svg">
<path d="M9.5457 13.1869C9.72418 13.5751 10.2758 13.5751 10.4543 13.1869L10.9227 12.1681C10.9726 12.0596 11.0596 11.9726 11.1681 11.9227L12.1869 11.4543C12.5751 11.2758 12.5751 10.7242 12.1869 10.5457L11.1681 10.0773C11.0596 10.0274 10.9726 9.94036 10.9227 9.83187L10.4543 8.81307C10.2758 8.42489 9.72418 8.42489 9.5457 8.81307L9.07729 9.83187C9.02741 9.94036 8.94035 10.0274 8.83187 10.0773L7.81306 10.5457C7.42488 10.7242 7.42488 11.2758 7.81306 11.4543L8.83187 11.9227C8.94035 11.9726 9.02741 12.0596 9.07729 12.1681L9.5457 13.1869ZM10.4552 17.9986C10.2775 18.3894 9.72244 18.3894 9.54481 17.9986L7.57758 13.6707C7.52755 13.5606 7.43935 13.4724 7.3293 13.4224L3.00139 11.4552C2.6106 11.2775 2.61059 10.7224 3.00139 10.5448L7.3293 8.57758C7.43935 8.52756 7.52755 8.43936 7.57758 8.3293L9.54481 4.0014C9.72244 3.6106 10.2775 3.6106 10.4552 4.0014L12.4224 8.3293C12.4724 8.43936 12.5606 8.52756 12.6707 8.57758L16.9986 10.5448C17.3894 10.7224 17.3894 11.2775 16.9986 11.4552L12.6707 13.4224C12.5606 13.4724 12.4724 13.5606 12.4224 13.6707L10.4552 17.9986ZM18.4552 19.9986C18.2775 20.3894 17.7224 20.3894 17.5448 19.9986L16.8276 18.4207C16.7776 18.3106 16.6894 18.2224 16.5793 18.1724L15.0014 17.4552C14.6106 17.2775 14.6106 16.7224 15.0014 16.5448L16.5793 15.8276C16.6894 15.7776 16.7776 15.6894 16.8276 15.5793L17.5448 14.0014C17.7224 13.6106 18.2775 13.6106 18.4552 14.0014L19.1724 15.5793C19.2224 15.6894 19.3106 15.7776 19.4207 15.8276L20.9986 16.5448C21.3894 16.7224 21.3894 17.2775 20.9986 17.4552L19.4207 18.1724C19.3106 18.2224 19.2224 18.3106 19.1724 18.4207L18.4552 19.9986Z" fill="#1C1B1F"/>
</svg>
