<svg width="14" height="16" viewBox="0 0 14 16" fill="none" xmlns="http://www.w3.org/2000/svg">
<path d="M7.78488 0.970058C7.78488 0.985756 9.54302 2.36715 12.6512 2.66541C13.2791 2.7282 13.75 3.24622 13.75 3.87413C13.75 12.6648 7.73779 15.3805 7.48663 15.4904C7.32965 15.5532 7.17267 15.5846 7 15.5846C6.82733 15.5846 6.67035 15.5532 6.51337 15.4904C6.26221 15.3805 0.25 12.6648 0.25 3.87413C0.25 3.24622 0.72093 2.7282 1.34884 2.66541C4.45698 2.36715 6.21512 0.985756 6.23081 0.970058C6.68605 0.593314 7.32965 0.593314 7.78488 0.970058Z" fill="#54B856"/>
<mask id="mask0_1466_80370" style="mask-type:alpha" maskUnits="userSpaceOnUse" x="0" y="0" width="14" height="16">
<path d="M7.78488 0.970058C7.78488 0.985756 9.54302 2.36715 12.6512 2.66541C13.2791 2.7282 13.75 3.24622 13.75 3.87413C13.75 12.6648 7.73779 15.3805 7.48663 15.4904C7.32965 15.5532 7.17267 15.5846 7 15.5846C6.82733 15.5846 6.67035 15.5532 6.51337 15.4904C6.26221 15.3805 0.25 12.6648 0.25 3.87413C0.25 3.24622 0.72093 2.7282 1.34884 2.66541C4.45698 2.36715 6.21512 0.985756 6.23081 0.970058C6.68605 0.593314 7.32965 0.593314 7.78488 0.970058Z" fill="#54B856"/>
</mask>
<g mask="url(#mask0_1466_80370)">
<path opacity="0.6" d="M15.0275 -5.13868C15.0318 -5.11392 18.1865 -3.42108 23.1711 -3.80965C24.1788 -3.88415 25.0647 -3.19727 25.2383 -2.20694C27.6677 11.6577 18.9358 17.6025 18.57 17.8452C18.3398 17.9876 18.1009 18.0805 17.8285 18.1282C17.5562 18.1759 17.2999 18.1698 17.035 18.1142C16.6085 18.0103 6.37554 15.3886 3.9461 1.52398C3.77257 0.533652 4.37216 -0.413521 5.34514 -0.686086C10.1649 -2.01547 12.556 -4.68009 12.5764 -4.70919C13.1903 -5.4292 14.2054 -5.60707 15.0275 -5.13868Z" fill="#479C33"/>
<path d="M19.5119 -5.92384C19.5162 -5.89908 22.6709 -4.20624 27.6555 -4.59481C28.6632 -4.66931 29.5491 -3.98243 29.7226 -2.9921C32.1521 10.8726 23.4202 16.8173 23.0544 17.06C22.8242 17.2024 22.5853 17.2953 22.3129 17.3431C22.0406 17.3908 21.7843 17.3847 21.5194 17.329C21.0929 17.2251 10.8599 14.6035 8.43048 0.738828C8.25695 -0.251504 8.85653 -1.19868 9.82951 -1.47124C14.6492 -2.80063 17.0404 -5.46525 17.0608 -5.49435C17.6747 -6.21436 18.6898 -6.39223 19.5119 -5.92384Z" fill="#479C33"/>
</g>
</svg>
