<?xml version="1.0" encoding="UTF-8" standalone="no"?>
<svg
   xmlns:dc="http://purl.org/dc/elements/1.1/"
   xmlns:cc="http://creativecommons.org/ns#"
   xmlns:rdf="http://www.w3.org/1999/02/22-rdf-syntax-ns#"
   xmlns:svg="http://www.w3.org/2000/svg"
   xmlns="http://www.w3.org/2000/svg"
   viewBox="0 0 636.47998 172.92"
   height="172.92"
   width="636.47998"
   xml:space="preserve"
   id="svg2"
   version="1.1"><metadata
     id="metadata8"><rdf:RDF><cc:Work
         rdf:about=""><dc:format>image/svg+xml</dc:format><dc:type
           rdf:resource="http://purl.org/dc/dcmitype/StillImage" /></cc:Work></rdf:RDF></metadata><defs
     id="defs6" /><g
     transform="matrix(1.3333333,0,0,-1.3333333,0,172.92)"
     id="g10"><g
       transform="scale(0.1)"
       id="g12"><path
         id="path14"
         style="fill:#ffffff;fill-opacity:1;fill-rule:nonzero;stroke:none"
         d="m 1722.35,939.109 146.43,-391.98 H 1570.67 Z M 1379.69,247.27 h 77.46 l 91.24,237.726 h 344.82 l 92.3,-237.726 h 77.43 l -297.06,764.71 h -80.66 L 1379.69,247.27" /><path
         id="path16"
         style="fill:#ffffff;fill-opacity:1;fill-rule:nonzero;stroke:none"
         d="m 2088.94,247.262 h 66.8086 v 764.715 H 2088.94 Z" /><path
         id="path18"
         style="fill:#ffffff;fill-opacity:1;fill-rule:nonzero;stroke:none"
         d="M 2441.98,799.898 H 2333.8 v 48.188 c 0,15.016 0.33,28.937 1.05,41.762 0.7,12.898 3.35,24.113 7.95,33.777 4.58,9.617 11.84,17.285 21.73,23.016 9.9,5.703 24.05,8.57 42.46,8.57 7.75,0 15.57,-0.535 23.36,-1.598 7.71,-1.074 16.22,-2.328 25.4,-3.754 v 57.801 c -10.59,1.44 -20.11,2.55 -28.6,3.2 -8.51,0.71 -17.7,1.12 -27.61,1.12 -26.88,0 -48.98,-3.95 -66.31,-11.79 -17.33,-7.838 -30.96,-18.917 -40.85,-33.178 -9.91,-14.324 -16.58,-31.453 -20.16,-51.407 -3.52,-20.015 -5.32,-41.8 -5.32,-65.351 v -50.356 h -93.33 v -56.73 h 93.33 V 247.27 h 66.9 v 495.898 h 108.18 v 56.73" /><path
         id="path20"
         style="fill:#ffffff;fill-opacity:1;fill-rule:nonzero;stroke:none"
         d="m 2462.85,247.27 h 66.85 v 290.023 c 0,28.086 4.92,54.504 14.87,79.113 9.87,24.614 23.84,45.676 41.87,63.289 18.09,17.567 39.47,31.133 64.21,40.629 24.74,9.524 52.34,13.508 82.73,12.145 v 67.433 c -49.49,2.145 -92.11,-7.644 -127.84,-29.437 -35.7,-21.82 -62.02,-55.149 -79.04,-100.156 h -2.09 v 129.593 h -61.56 V 247.27" /><path
         id="path22"
         style="fill:#ffffff;fill-opacity:1;fill-rule:nonzero;stroke:none"
         d="m 2765.34,562.16 c 2.82,22.965 8.63,45.395 17.51,67.313 8.85,22.039 20.64,41.398 35.51,58.086 14.86,16.699 32.89,30.168 54.17,40.289 21.18,10.175 45.56,15.32 73.17,15.32 26.88,0 50.9,-5.145 72.15,-15.32 21.24,-10.121 39.26,-23.59 54.11,-40.289 14.81,-16.688 26.32,-35.95 34.45,-57.5 8.14,-21.711 12.57,-44.325 13.3,-67.899 z m 421.18,-56.805 c 1.43,36.543 -2.12,72.614 -10.63,108.149 -8.43,35.582 -22.4,67.059 -41.88,94.508 -19.46,27.39 -44.7,49.578 -75.87,66.519 -31.1,16.922 -68.59,25.367 -112.44,25.367 -43.85,0 -81.34,-7.933 -112.48,-23.781 -31.11,-15.847 -56.58,-36.754 -76.39,-62.777 -19.75,-25.942 -34.46,-55.465 -44.04,-88.535 -9.5,-33.121 -14.3,-66.825 -14.3,-101.227 0,-37.105 4.8,-72.359 14.3,-105.758 9.58,-33.402 24.29,-62.754 44.04,-88.097 19.81,-25.293 45.28,-45.332 76.39,-60.192 31.14,-14.89 68.63,-22.261 112.48,-22.261 69.3,0 122.86,17.3 160.71,51.929 37.88,34.617 63.86,83.379 77.99,146.219 h -66.82 c -10.62,-42.164 -29.7,-76.25 -57.28,-102.313 -27.6,-26.035 -65.79,-39.082 -114.6,-39.082 -31.82,0 -59.22,6.254 -82.23,18.797 -22.98,12.571 -41.57,28.489 -55.71,47.641 -14.14,19.164 -24.76,40.703 -31.78,64.496 -7.13,23.82 -10.64,47.273 -10.64,70.398 h 421.18" /><path
         id="path24"
         style="fill:#ffffff;fill-opacity:1;fill-rule:nonzero;stroke:none"
         d="m 3629.63,638.176 c -1.41,29.961 -7.43,56.047 -18.02,78.183 -10.62,22.114 -24.93,40.692 -42.93,55.684 -18.06,15.008 -38.95,26.086 -62.64,33.195 -23.71,7.168 -49.36,10.739 -76.92,10.739 -24.04,0 -48.26,-2.852 -72.67,-8.559 -24.41,-5.727 -46.5,-14.676 -66.26,-26.816 -19.89,-12.106 -35.97,-28.207 -48.32,-48.125 -12.38,-20.032 -18.6,-43.997 -18.6,-71.825 0,-23.574 3.88,-43.371 11.67,-59.461 7.79,-16.031 18.61,-29.609 32.35,-40.668 13.8,-11.093 29.9,-20.355 48.32,-27.867 18.38,-7.484 38.52,-14.078 60.46,-19.797 l 85.95,-19.269 c 14.83,-3.621 29.54,-7.828 44.02,-12.863 14.52,-4.985 27.42,-11.227 38.76,-18.747 11.3,-7.484 20.29,-16.945 27.03,-28.367 6.72,-11.406 10.1,-24.976 10.1,-40.738 0,-19.262 -4.82,-35.508 -14.31,-48.699 -9.59,-13.25 -21.82,-24.098 -36.61,-32.692 -14.88,-8.523 -31.17,-14.605 -48.83,-18.144 -17.66,-3.629 -34.32,-5.41 -49.89,-5.41 -44.57,0 -81.84,11.609 -111.93,34.828 -30.06,23.211 -46.51,57.672 -49.37,103.347 h -66.85 c 5.68,-67.875 28.52,-117.304 68.47,-148.324 40,-31.051 92.15,-46.582 156.51,-46.582 25.48,0 51.28,3 77.44,9.063 26.18,6.09 49.7,15.699 70.55,28.949 20.87,13.199 37.99,30.328 51.49,51.437 13.39,21.055 20.14,46.543 20.14,76.532 0,24.316 -4.59,45.371 -13.79,63.254 -9.18,17.796 -21.04,32.777 -35.53,44.929 -14.51,12.117 -31.13,21.969 -49.89,29.477 -18.7,7.461 -37.7,12.687 -56.74,15.515 l -89.15,20.372 c -11.31,2.828 -23.66,6.558 -37.11,11.226 -13.44,4.598 -25.85,10.531 -37.12,17.699 -11.34,7.071 -20.73,15.836 -28.17,26.211 -7.41,10.336 -11.05,23.028 -11.05,38.02 0,17.785 3.81,32.863 11.6,44.98 7.72,12.164 18.05,21.965 30.82,29.477 12.67,7.473 26.65,12.785 41.85,16.055 15.23,3.242 30.27,4.789 45.12,4.789 19.09,0 37.1,-2.254 54.12,-6.961 16.91,-4.61 32.01,-11.91 45.07,-21.953 13.06,-9.95 23.52,-22.637 31.3,-38.02 7.79,-15.324 11.98,-33.352 12.71,-54.074 h 66.85" /><path
         id="path26"
         style="fill:#ffffff;fill-opacity:1;fill-rule:nonzero;stroke:none"
         d="m 4134.03,610.336 c -7.77,63.559 -32.02,111.051 -72.7,142.426 -40.72,31.426 -90.39,47.14 -149.06,47.14 -41.77,0 -78.71,-7.386 -110.9,-22.269 -32.18,-14.836 -59.27,-34.754 -81.17,-59.695 -21.91,-25.004 -38.5,-54.356 -49.84,-88.086 -11.32,-33.731 -16.99,-69.164 -16.99,-106.27 0,-37.789 5.67,-73.348 16.99,-106.785 11.34,-33.402 27.93,-62.57 49.84,-87.563 21.9,-24.988 48.99,-44.843 81.17,-59.703 32.19,-14.883 69.13,-22.261 110.9,-22.261 61.53,0 112.24,18.929 152.21,56.757 39.99,37.836 64.57,90.301 73.75,157.422 h -66.83 c -2.1,-22.859 -7.8,-43.91 -16.99,-63.156 -9.22,-19.297 -20.88,-35.875 -34.95,-49.832 -14.18,-13.922 -30.49,-24.832 -48.84,-32.66 -18.35,-7.875 -37.88,-11.774 -58.35,-11.774 -31.86,0 -59.81,6.325 -83.86,18.907 -24.07,12.64 -44,29.293 -59.92,49.941 -15.9,20.613 -27.92,44.105 -36.09,70.324 -8.12,26.317 -12.2,53.114 -12.2,80.383 0,27.305 4.08,54.035 12.2,80.356 8.17,26.218 20.19,49.71 36.09,70.324 15.92,20.648 35.85,37.273 59.92,49.918 24.05,12.675 52,18.992 83.86,18.992 43.81,0 78.32,-11.801 103.41,-35.34 25.17,-23.602 42.26,-56.086 51.48,-97.496 h 66.87" /><path
         id="path28"
         style="fill:#ffffff;fill-opacity:1;fill-rule:nonzero;stroke:none"
         d="m 4421.11,743.168 c 31.84,0 59.81,-6.316 83.82,-18.98 24.06,-12.657 44.02,-29.282 59.97,-49.918 15.9,-20.625 27.94,-44.118 36.07,-70.336 8.11,-26.321 12.23,-53.039 12.23,-80.36 0,-27.254 -4.12,-54.058 -12.23,-80.367 -8.13,-26.219 -20.17,-49.723 -36.07,-70.336 -15.95,-20.637 -35.91,-37.289 -59.97,-49.93 -24.01,-12.589 -51.98,-18.918 -83.82,-18.918 -31.83,0 -59.78,6.329 -83.78,18.918 -24.06,12.641 -44.03,29.293 -60.02,49.93 -15.83,20.613 -27.89,44.117 -36.01,70.336 -8.13,26.309 -12.18,53.113 -12.18,80.367 0,27.321 4.05,54.039 12.18,80.36 8.12,26.218 20.18,49.711 36.01,70.336 15.99,20.636 35.96,37.261 60.02,49.918 24,12.664 51.95,18.98 83.78,18.98 m 0,56.73 c -41.71,0 -78.66,-7.386 -110.87,-22.257 -32.15,-14.836 -59.25,-34.766 -81.12,-59.707 -21.98,-25.004 -38.57,-54.344 -49.89,-88.086 -11.3,-33.731 -17,-69.153 -17,-106.274 0,-37.773 5.7,-73.344 17,-106.781 11.32,-33.402 27.91,-62.57 49.89,-87.563 21.87,-24.988 48.97,-44.851 81.12,-59.699 32.21,-14.89 69.16,-22.261 110.87,-22.261 41.76,0 78.72,7.371 110.89,22.261 32.2,14.848 59.25,34.711 81.2,59.699 21.91,24.993 38.52,54.161 49.83,87.563 11.3,33.437 16.98,69.008 16.98,106.781 0,37.121 -5.68,72.543 -16.98,106.274 -11.31,33.742 -27.92,63.082 -49.83,88.086 -21.95,24.941 -49,44.871 -81.2,59.707 -32.17,14.871 -69.13,22.257 -110.89,22.257" /><path
         id="path30"
         style="fill:#ffffff;fill-opacity:1;fill-rule:nonzero;stroke:none"
         d="m 4719.6,765.938 c 9.17,0 18.16,0.289 18.16,10.785 0,8.593 -7.06,10.605 -14.34,10.605 h -13.6 v -21.39 z m -9.78,-33.805 h -7.5 v 61.644 h 23.16 c 13.65,0 19.71,-6.007 19.71,-17.054 0,-10.934 -7.03,-15.797 -15.16,-17.2 l 17.95,-27.39 h -8.65 l -17.06,27.39 h -12.45 z m -32.64,30.84 c 0,-25.524 18.78,-45.75 44.13,-45.75 25.31,0 44.17,20.226 44.17,45.75 0,25.465 -18.86,45.675 -44.17,45.675 -25.35,0 -44.13,-20.21 -44.13,-45.675 m 96.4,0 c 0,-30 -22.73,-53.332 -52.27,-53.332 -29.55,0 -52.29,23.332 -52.29,53.332 0,29.902 22.74,53.308 52.29,53.308 29.54,0 52.27,-23.406 52.27,-53.308" /><path
         id="path32"
         style="fill:#ffffff;fill-opacity:1;fill-rule:nonzero;stroke:none"
         d="m 635.914,648.125 -179.363,183.094 -6.508,6.668 c -102.801,105.187 -270.328,105.187 -372.6367,0.414 -103.1407,-104.699 -103.1407,-274.969 0,-379.778 102.3087,-105.089 269.3867,-105.089 372.1487,0 l 186.359,189.602" /><path
         id="path34"
         style="fill:#ffffff;fill-opacity:1;fill-rule:nonzero;stroke:none"
         d="M 635.914,648.371 V 389.75 l 0.379,-9.508 c 0,-148.262 -118.109,-269.191 -263.695,-269.191 -145.598,0 -263.68,120.16 -263.68,268.433 0,148.461 118.523,268.887 263.68,268.887 h 263.316" /><path
         id="path36"
         style="fill:#ffffff;fill-opacity:1;fill-rule:nonzero;stroke:none"
         d="M 635.914,648.371 V 389.75 l 0.379,-9.508 c 0,-148.262 -118.109,-269.191 -263.695,-269.191 -145.598,0 -263.68,120.16 -263.68,268.433 0,148.461 118.523,268.887 263.68,268.887 h 263.316" /><path
         id="path38"
         style="fill:#ffffff;fill-opacity:1;fill-rule:nonzero;stroke:none"
         d="M 635.914,648.371 V 389.75 l 0.379,-9.508 c 0,-148.262 -118.109,-269.191 -263.695,-269.191 -145.598,0 -263.68,120.16 -263.68,268.433 0,16.532 1.73,32.547 4.437,47.957 102.735,-72.933 244.848,-62.582 336.2,31 l 186.359,189.688 v 0.242" /><path
         id="path40"
         style="fill:#7dc629;fill-opacity:1;fill-rule:nonzero;stroke:none"
         d="m 372.598,614.484 c -126.864,0 -230,-105.203 -230,-234.988 0,-129.305 103.136,-234.266 230,-234.266 127.285,0 230.035,104.961 230.035,234.266 V 614.484 H 372.598" /><path
         id="path42"
         style="fill:#ffffff;fill-opacity:1;fill-rule:nonzero;stroke:none"
         d="m 635.914,648.371 179.215,-182.773 7.375,-6.668 c 102.383,-105.043 102.859,-275.571 0,-380.3206 -103.141,-104.8203 -269.762,-104.8203 -372.949,0 -102.762,104.7496 -102.762,275.0816 0,380.0856 l 186.359,189.676" /><path
         id="path44"
         style="fill:#7dc629;fill-opacity:1;fill-rule:nonzero;stroke:none"
         d="m 473.602,434.59 c -90.024,-91.598 -90.024,-240.41 0,-331.738 89.609,-91.6332 235.328,-91.6332 325.351,0 89.633,91.328 89.633,240.14 0,331.738 l -7.496,6.859 L 635.91,600.273 473.602,434.895 v -0.305" /><path
         id="path46"
         style="fill:#ffffff;fill-opacity:1;fill-rule:nonzero;stroke:none"
         d="m 635.914,648.371 h 253.953 l 9.238,0.453 c 145.645,0 263.715,-120.379 263.715,-268.824 0,-148.551 -117.68,-268.441 -263.273,-268.441 -145.598,0 -263.633,120.101 -263.633,268.441 v 268.371" /><path
         id="path48"
         style="fill:#7dc629;fill-opacity:1;fill-rule:nonzero;stroke:none"
         d="m 669.523,379.996 c 0,-129.617 102.715,-234.586 230.028,-234.586 126.729,0 229.469,104.969 229.469,234.586 0,129.785 -102.74,234.484 -229.469,234.484 H 669.523 V 379.996" /><path
         id="path50"
         style="fill:#ffffff;fill-opacity:1;fill-rule:nonzero;stroke:none"
         d="m 635.914,648.371 179.215,183.031 6.949,6.891 c 102.809,104.781 269.802,105.199 372.582,0.473 102.81,-105.051 102.81,-275.051 0,-380.071 -102.78,-105.004 -269.773,-105.004 -372.582,0 L 635.914,648.371" /><path
         id="path52"
         style="fill:#7dc629;fill-opacity:1;fill-rule:nonzero;stroke:none"
         d="m 846.113,482.984 c 89.246,-91.863 234.867,-91.863 324.917,0 90.09,91.438 90.09,239.836 0,331.52 -90.05,91.582 -235.671,91.582 -324.917,0 l -7.375,-7.156 -155.273,-158.969 161.836,-165.199 0.812,-0.196" /><path
         id="path54"
         style="fill:#ffffff;fill-opacity:1;fill-rule:nonzero;stroke:none"
         d="m 635.914,648.371 v 268.461 c 0,148.158 117.559,268.798 263.633,268.798 145.203,0 262.813,-119.86 262.813,-268.36 0,-148.485 -117.61,-268.899 -262.813,-268.899 H 635.914" /><path
         id="path56"
         style="fill:#f79427;fill-opacity:1;fill-rule:nonzero;stroke:none"
         d="m 899.543,682.496 c 126.727,0 229.487,105.016 229.487,234.731 0,129.233 -102.76,234.483 -229.487,234.483 -127.301,0 -230.488,-105.25 -230.488,-234.483 l 0.465,-10.043 V 682.496 h 230.023" /><path
         id="path58"
         style="fill:#ffffff;fill-opacity:1;fill-rule:nonzero;stroke:none"
         d="m 635.914,648.371 -179.363,183.031 -6.996,6.489 c -102.762,105.183 -102.762,275.549 0,380.309 102.332,104.96 269.41,104.96 372.523,0 102.809,-104.76 102.809,-275.126 0,-379.907 L 635.914,648.371" /><path
         id="path60"
         style="fill:#3a7fca;fill-opacity:1;fill-rule:nonzero;stroke:none"
         d="m 798.48,860.152 c 89.594,91.621 89.594,240.308 0,331.798 -89.988,91.55 -235.281,91.55 -325.289,0 -90.086,-91.49 -90.086,-240.177 0,-331.798 l 6.559,-7.019 156.164,-158.555 162.078,165.172 0.488,0.402" /><path
         id="path62"
         style="fill:#ffffff;fill-opacity:1;fill-rule:nonzero;stroke:none"
         d="M 635.914,646.18 H 382.18 l -9.582,-0.254 c -145.157,0 -263.68,120.426 -263.68,268.812 0,148.282 118.082,268.672 263.23,268.672 145.622,0 263.766,-120.39 263.766,-268.769 V 646.18" /><path
         id="path64"
         style="fill:#3a7fca;fill-opacity:1;fill-rule:nonzero;stroke:none"
         d="m 602.598,914.641 c 0,129.599 -102.75,234.489 -230.442,234.489 -126.789,0 -229.937,-104.89 -229.937,-234.317 0,-129.52 103.148,-234.766 229.937,-234.766 l 10.02,0.266 h 220.422 v 234.328" /><path
         id="path66"
         style="fill:#ffffff;fill-opacity:1;fill-rule:nonzero;stroke:none"
         d="M 635.914,646.18 0,645.926 c 0,68.691 25.3438,137.515 77.4063,190.176 102.3087,104.773 269.3867,104.773 372.1487,0 L 635.914,646.18" /><path
         id="path68"
         style="fill:#3a7fca;fill-opacity:1;fill-rule:nonzero;stroke:none"
         d="M 425.945,811.992 588.633,646.184 H 372.59 c -116.742,0 -216.031,-77.598 -250.504,-185.43 -7.047,6.215 -14.492,12.527 -20.988,19.598 -90.098,91.632 -90.098,239.8 0,331.64 89.156,91.485 235.242,91.485 324.847,0" /><path
         id="path70"
         style="fill:#2a59ab;fill-opacity:1;fill-rule:nonzero;stroke:none"
         d="M 426.355,811.793 555.094,680.445 371.988,679.887 c -105.394,0 -194.261,72.203 -221.222,170.781 87.414,49.953 201.902,37.945 275.175,-38.68 l 0.414,-0.195" /><path
         id="path72"
         style="fill:#2a59ab;fill-opacity:1;fill-rule:nonzero;stroke:none"
         d="m 602.676,914.176 -0.184,-185.778 -129.25,131.786 c -74.422,76.054 -87.523,191.106 -38.535,280.266 96.617,-27.6 167.969,-118.16 167.969,-225.79 v -0.484" /><path
         id="path74"
         style="fill:#2a59ab;fill-opacity:1;fill-rule:nonzero;stroke:none"
         d="m 668.531,727.984 v 186.36 c 0,107.386 71.227,198.086 167.969,225.916 48.93,-89.41 39.727,-201.475 -37.07,-278.979 L 668.531,727.984" /><path
         id="path76"
         style="fill:#fae033;fill-opacity:1;fill-rule:nonzero;stroke:none"
         d="M 716.563,682.402 845.68,814.406 c 74.383,75.992 187.33,88.844 274.83,38.949 -27.62,-98.519 -111.89,-169.296 -215.612,-171.023 l -188.335,0.07" /><path
         id="path78"
         style="fill:#45ab3d;fill-opacity:1;fill-rule:nonzero;stroke:none"
         d="m 716.543,614.613 h 182.75 c 105.397,0 194.187,-71.761 221.317,-170.523 -87.95,-50.141 -200.837,-37 -275.551,38.957 L 716.543,614.613" /><path
         id="path80"
         style="fill:#45ab3d;fill-opacity:1;fill-rule:nonzero;stroke:none"
         d="M 669.504,381.234 V 566.691 L 798.949,435.113 c 74.43,-76.187 87.035,-191.781 38.094,-280.941 -96.656,27.719 -167.539,118.66 -167.539,226.172 v 0.89" /><path
         id="path82"
         style="fill:#45ab3d;fill-opacity:1;fill-rule:nonzero;stroke:none"
         d="m 473.906,435.039 128.653,131.215 0.293,-186.434 c 0,-107.461 -70.786,-197.769 -167.442,-225.621 -48.953,89.34 -35.851,204.653 38.496,280.461 v 0.379" /><path
         id="path84"
         style="fill:#45ab3d;fill-opacity:1;fill-rule:nonzero;stroke:none"
         d="M 373.902,614.555 H 555.824 L 426.816,482.797 c -74.273,-75.899 -188.101,-88.988 -275.457,-39.082 27.465,98.808 116.356,170.84 221.739,170.84 h 0.804" /></g></g></svg>