<?xml version="1.0" encoding="UTF-8" standalone="no"?>
<!-- Created with Inkscape (http://www.inkscape.org/) -->

<svg
   xmlns:dc="http://purl.org/dc/elements/1.1/"
   xmlns:cc="http://creativecommons.org/ns#"
   xmlns:rdf="http://www.w3.org/1999/02/22-rdf-syntax-ns#"
   xmlns:svg="http://www.w3.org/2000/svg"
   xmlns="http://www.w3.org/2000/svg"
   xmlns:sodipodi="http://sodipodi.sourceforge.net/DTD/sodipodi-0.dtd"
   xmlns:inkscape="http://www.inkscape.org/namespaces/inkscape"
   id="svg5017"
   version="1.1"
   inkscape:version="0.48.4 r9939"
   width="3800"
   height="3800"
   xml:space="preserve"
   sodipodi:docname="Alfresco_flower_3800.svg"
   inkscape:export-filename="/home/msaye/Pictures/Alfresco_flower_400.png"
   inkscape:export-xdpi="9.4700003"
   inkscape:export-ydpi="9.4700003"><metadata
     id="metadata5023"><rdf:RDF><cc:Work
         rdf:about=""><dc:format>image/svg+xml</dc:format><dc:type
           rdf:resource="http://purl.org/dc/dcmitype/StillImage" /><dc:title></dc:title></cc:Work></rdf:RDF></metadata><defs
     id="defs5021"><clipPath
       clipPathUnits="userSpaceOnUse"
       id="clipPath5037"><path
         d="M 0,202 500,202 500,0 0,0 0,202 z"
         id="path5039"
         inkscape:connector-curvature="0" /></clipPath></defs><sodipodi:namedview
     pagecolor="#ff50ff"
     bordercolor="#666666"
     borderopacity="1"
     objecttolerance="10"
     gridtolerance="10"
     guidetolerance="10"
     inkscape:pageopacity="0"
     inkscape:pageshadow="2"
     inkscape:window-width="1758"
     inkscape:window-height="1030"
     id="namedview5019"
     showgrid="false"
     inkscape:zoom="0.16"
     inkscape:cx="1338.5187"
     inkscape:cy="1571.9443"
     inkscape:window-x="129"
     inkscape:window-y="37"
     inkscape:window-maximized="1"
     inkscape:current-layer="g5025"
     fit-margin-top="0"
     fit-margin-left="0"
     fit-margin-right="0"
     fit-margin-bottom="0"
     units="px"
     showguides="true"
     inkscape:guide-bbox="true"
     showborder="true"
     inkscape:showpageshadow="true"
     borderlayer="false" /><g
     id="g5025"
     inkscape:groupmode="layer"
     inkscape:label="Alfresco_logo_PMS_tag_stacked"
     transform="matrix(1.25,0,0,-1.25,1991.5508,1691.8731)"><text
       xml:space="preserve"
       style="font-size:56px;font-style:normal;font-weight:normal;line-height:125%;letter-spacing:0px;word-spacing:0px;fill:#000000;fill-opacity:1;stroke:none;font-family:Sans;-inkscape-font-specification:Sans"
       x="22.249998"
       y="76"
       id="text8252"
       sodipodi:linespacing="125%"
       transform="matrix(0.8,0,0,-0.8,185.95992,134.36454)"><tspan
         sodipodi:role="line"
         id="tspan8254"
         x="22.249998"
         y="76" /></text>
<path
       style="fill:#ffffff;fill-opacity:1"
       d="m -702.82669,1092.7081 c -347.72041,0 -629.62371,-281.88088 -629.62361,-629.60474 0,-347.7238 281.9033,-629.6048 629.62361,-629.6048 -347.72031,2e-4 -629.62361,-281.88111 -629.62361,-629.6048 0,-347.72396 281.9031,-629.60496 629.62361,-629.60486 347.7203,0 629.598803,281.8811 629.598603,629.60486 0,-347.72376 281.878197,-629.60486 629.598597,-629.60486 347.7202,0 629.59869,281.8811 629.59839,629.60486 0,347.72377 -281.87819,629.605 -629.59839,629.6048 347.7202,-1e-4 629.59839,281.88095 629.59839,629.6048 0,347.72389 -281.87809,629.60484 -629.59839,629.60474 -347.7202,0 -629.598797,-281.88087 -629.598597,-629.60474 0,347.72376 -281.878303,629.60474 -629.598603,629.60474 z"
       id="path4476-22"
       inkscape:connector-curvature="0" /><path
       style="fill:#ffffff;fill-opacity:1"
       d="m -1408.8268,278.70556 c -245.8751,-245.875573 -245.8909,-644.53153 -0.013,-890.40955 245.8776,-245.87804 644.53301,-245.8623 890.40801,0.0132 -245.8752,-245.87533 -245.8907,-644.53161 -0.013,-890.40961 245.8777,-245.8781 644.5329,-245.8625 890.4081,0.013 245.875,245.8756 245.8732,644.51414 0,890.39194 245.8775,-245.87801 644.51519,-245.87999 890.39039,-0.004 245.875,245.87543 245.8733,644.514107 0,890.39184 -245.8777,245.87805 -644.51549,245.88014 -890.39029,0.005 245.875,245.87538 245.8731,644.51372 0,890.39172 -245.8777,245.8781 -644.5152,245.8802 -890.3903,0 -245.8751,-245.8754 -245.8734,-644.51386 0,-890.39188 -245.8775,245.87802 -644.51511,245.88002 -890.39031,0.004 z"
       id="path4476-22-3"
       inkscape:connector-curvature="0" /><path
       style="fill:#f99f38;fill-opacity:1"
       d="m 556.36414,1012.7081 c -22.96703,0 -45.59831,-1.4142 -67.82559,-4.15 C 608.31795,772.27136 569.46168,476.20083 371.96253,278.70172 L 6.7593376,-86.501472 l 549.6048024,0 c 303.54097,-7.2e-5 549.60476,246.063752 549.60476,549.604802 0,303.54105 -246.06379,549.60487 -549.60476,549.60477 z"
       id="path4476-0-7"
       inkscape:connector-curvature="0" /><path
       style="fill:#8bc037;fill-opacity:1"
       d="m -702.84547,-1345.7111 c 22.96703,0 45.59831,1.4142 67.82559,4.15 -119.7794,236.2868 -80.92313,532.35734 116.57602,729.85646 l 365.20319,365.20321 -549.6048,0 c -303.54093,8e-5 -549.60483,-246.06376 -549.60483,-549.60483 0,-303.54104 246.0639,-549.60494 549.60483,-549.60484 z"
       id="path4476-0-7-8"
       inkscape:connector-curvature="0" /><path
       style="fill:#0081c6;fill-opacity:1"
       d="m -1252.4503,463.10334 c 0,-22.967 1.4142,-45.5983 4.15,-67.8256 236.2868,119.7794 532.35733,80.9231 729.85643,-116.5761 l 365.20322,-365.203202 0,549.604902 c 8e-5,303.541 -246.06376,549.60466 -549.60482,549.60466 -303.54113,0 -549.60493,-246.06366 -549.60483,-549.60466 z"
       id="path4476-0-7-0"
       inkscape:connector-curvature="0" /><path
       style="fill:#8bc037;fill-opacity:1"
       d="m 1105.969,-796.10625 c 0,22.967 -1.4142,45.5983 -4.15,67.82558 -236.28678,-119.77938 -532.35738,-80.92318 -729.85652,116.576 l -365.2032144,365.20311 0,-549.60469 c -8e-5,-303.54095 246.0638144,-549.60485 549.6049544,-549.60485 303.541,0 549.60488,246.0639 549.60478,549.60485 z"
       id="path4476-0-7-8-8"
       inkscape:connector-curvature="0" /><path
       style="fill:#0081c6;fill-opacity:1"
       d="m -461.86944,1112.5218 c -16.24018,-16.2401 -31.24286,-33.2428 -45.02544,-50.8943 251.77647,-82.38309 433.654145,-319.2118 433.654085,-598.51743 l 1e-5,-516.474645 388.628845,388.628835 c 214.63568,214.63557 214.63558,562.62183 -9e-5,777.25744 -214.63566,214.6357 -562.62189,214.6358 -777.25741,10e-5 z"
       id="path4476-0-7-01"
       inkscape:connector-curvature="0" /><path
       style="fill:#8bc037;fill-opacity:1"
       d="m 315.38804,-1445.5247 c 16.24018,16.2401 31.24284,33.2427 45.02539,50.8943 -251.77649,82.3831 -433.654235,319.2118 -433.654235,598.51743 l -4e-5,516.47458 -388.628695,-388.62875 c -214.63562,-214.63552 -214.63562,-562.62196 0,-777.25756 214.63562,-214.6356 562.62211,-214.6356 777.25758,0 z"
       id="path4476-0-7-8-0"
       inkscape:connector-curvature="0" /><path
       style="fill:#0081c6;fill-opacity:1"
       d="m -1352.264,-555.13023 c 16.2402,-16.2401 33.2428,-31.24284 50.8944,-45.02539 82.383,251.7765 319.21175,433.65415 598.51728,433.65408 l 516.47473,4e-5 -388.6289,388.62885 c -214.63552,214.6357 -562.62171,214.63556 -777.25741,-1.4e-4 -214.6356,-214.6356849 -214.6357,-562.62189 -10e-5,-777.25744 z"
       id="path4476-0-7-0-0"
       inkscape:connector-curvature="0" /><path
       style="fill:#8bc037;fill-opacity:1"
       d="m 1205.7825,222.12737 c -16.2401,16.2401 -33.2426,31.24284 -50.8943,45.02532 C 1072.5051,15.376335 835.67642,-166.50147 556.37081,-166.50154 l -516.474604,-3e-5 388.628674,-388.62867 c 214.63562,-214.63567 562.62199,-214.63567 777.25772,7e-5 214.6356,214.63562 214.6356,562.6220651 -10e-5,777.25754 z"
       id="path4476-0-7-8-8-8"
       inkscape:connector-curvature="0" /><path
       style="fill:#0965ad;fill-opacity:1"
       d="M 406.65898,992.04816 C 175.88322,926.8611 6.7588956,714.73755 6.7589756,463.09816 l 0,-436.475002 L 315.38394,335.27316 c 177.9296,177.92958 208.34936,447.5008 91.27504,656.775 z"
       id="path4476-0-9"
       inkscape:connector-curvature="0" /><path
       style="fill:#0965ad;fill-opacity:1"
       d="m -1231.8007,313.39816 c 65.1871,-230.775758 277.31066,-399.90008 528.95005,-399.9 l 436.475,0 -308.65,308.62496 c -177.92958,177.9296 -447.50085,208.34936 -656.77505,91.27504 z"
       id="path4476-0-9-6"
       inkscape:connector-curvature="0" /><path
       style="fill:#48a64a;fill-opacity:1"
       d="m 1085.3089,-646.41148 c -65.187,230.77576 -277.31053,399.90008 -528.94992,399.9 l -436.475,0 308.65,-308.62496 c 177.92958,-177.9296 447.5008,-208.34936 656.77492,-91.27504 z"
       id="path4476-0-9-4"
       inkscape:connector-curvature="0" /><path
       style="fill:#48a64a;fill-opacity:1"
       d="m -553.15066,-1325.0615 c 230.77576,65.1871 399.90008,277.3106 399.9,528.95003 l 0,436.475 -308.62496,-308.65 c -177.9296,-177.92958 -208.34936,-447.50083 -91.27504,-656.77503 z"
       id="path4476-0-9-1"
       inkscape:connector-curvature="0" /><path
       inkscape:connector-curvature="0"
       style="fill:#ffdf4f;fill-opacity:1"
       d="m 817.15934,383.0981 c -140.65612,0 -281.308,-53.6579 -388.625,-160.975 l -308.65,-308.625 436.475,0 c 251.63928,0 463.76286,169.1242 528.94996,399.9 -83.0519,46.4618 -175.60084,69.7 -268.14996,69.7 z"
       id="path4476-0-5" /><path
       inkscape:connector-curvature="0"
       style="fill:#0965ad;fill-opacity:1"
       d="m -622.85029,723.8981 c -10e-6,-140.6561 53.65796,-281.308 160.975,-388.625 l 308.625,-308.65 0,436.475 c 6e-5,251.6393 -169.12414,463.7629 -399.9,528.95 -46.46176,-83.0519 -69.69999,-175.6009 -69.7,-268.15 z"
       id="path4476-0-5-6" /><path
       inkscape:connector-curvature="0"
       style="fill:#48a64a;fill-opacity:1"
       d="m 476.35934,-1056.9115 c 1e-5,140.6561 -53.65796,281.308 -160.975,388.625 l -308.6250024,308.65 0,-436.475 c -6.4e-5,-251.6393 169.1241424,-463.7629 399.9000024,-528.95 46.46176,83.0519 69.69999,175.6009 69.7,268.15 z"
       id="path4476-0-5-5" /><path
       inkscape:connector-curvature="0"
       style="fill:#48a64a;fill-opacity:1"
       d="m -963.6503,-716.1115 c 140.65612,0 281.308,53.658 388.625,160.975 l 308.65,308.625 -436.475,0 c -251.63928,1e-4 -463.7629,-169.1241 -528.95,-399.9 83.0519,-46.4618 175.6009,-69.7 268.15,-69.7 z"
       id="path4476-0-5-8" /></g></svg>
