<svg width="32" height="32" viewBox="0 0 32 32" fill="none" xmlns="http://www.w3.org/2000/svg">
<path fill-rule="evenodd" clip-rule="evenodd" d="M20 23H26V19H28V13H17.32C16.17 10.58 13.72 9 11 9C7.14 9 4 12.14 4 16C4 19.86 7.14 23 11 23C13.72 23 16.18 21.42 17.32 19H20V23ZM24 21H22V17H15.94L15.71 17.67C15.01 19.66 13.11 21 11 21C8.24 21 6 18.76 6 16C6 13.24 8.24 11 11 11C13.11 11 15.01 12.34 15.71 14.33L15.94 15H26V17H24V21ZM11 19C9.35 19 8 17.65 8 16C8 14.35 9.35 13 11 13C12.65 13 14 14.35 14 16C14 17.65 12.65 19 11 19ZM10 16C10 15.45 10.45 15 11 15C11.55 15 12 15.45 12 16C12 16.55 11.55 17 11 17C10.45 17 10 16.55 10 16Z" fill="#212328" fill-opacity="0.6"/>
</svg>
